<!DOCTYPE svg PUBLIC "-//W3C//DTD SVG 1.1//EN" "http://www.w3.org/Graphics/SVG/1.1/DTD/svg11.dtd">
<!-- Uploaded to: SVG Repo, www.svgrepo.com, Transformed by: SVG Repo Mixer Tools -->
<svg width="800px" height="800px" viewBox="-102.4 -102.4 1228.80 1228.80" class="icon" version="1.1" xmlns="http://www.w3.org/2000/svg" fill="#000000">
<g id="SVGRepo_bgCarrier" stroke-width="0">
<path transform="translate(-102.4, -102.4), scale(38.4)" d="M16,25.135054702560108C17.311976477828676,24.525952328820075,18.833345435268445,25.403539917186762,20.268198230048576,25.586530183001987C22.81726122701233,25.91161838514444,25.513869230298788,27.77684899645658,27.81962767389252,26.64244055966749C29.781992680295815,25.676978012838887,30.637356791868147,22.809905719043165,30.30567945257485,20.64819702213595C29.941263269429545,18.273112748735127,26.973343505399217,17.154168840735974,26.025058014832375,14.946323943857005C25.4074302557156,13.50833263248341,26.514799853611922,11.728378827105061,25.863365493112042,10.3053832774361C25.208759710786087,8.875460062574334,23.37469340188725,8.397050495441238,22.445894781623288,7.127986961314226C21.086762979391192,5.270937897444077,21.251155198961605,2.099414035860281,19.157879369151917,1.143345637787096C17.257955790375593,0.2755876163383437,14.939867981702474,1.7306079792503328,13.218372599225175,2.9134719769644484C11.629580091835912,4.005153939029473,11.465385857046867,6.4830415123010035,9.85177899124065,7.537699760482585C8.119957409835852,8.669623498483578,5.20788287965833,7.412957815428362,3.891816332861099,9.009336900379918C2.665290793533912,10.497103398894616,3.9232929755455164,12.802382325254344,3.921944778127342,14.730545242408455C3.920717944422083,16.48513639063833,3.083695978389604,18.375316768099268,3.88417579479556,19.936669920366317C4.699175904973774,21.526345218911768,7.347431985753446,21.45993607567889,8.181818990323933,23.03952180016489C9.38733385824315,25.321693101479735,7.014533751650074,29.914100421051817,9.507537925911805,30.582308571580494C12.266345540877285,31.321760897048996,13.409389685098176,26.33777968956111,16,25.135054702560108" fill="#09731a" strokewidth="0"/>
</g>
<g id="SVGRepo_tracerCarrier" stroke-linecap="round" stroke-linejoin="round"/>
<g id="SVGRepo_iconCarrier">
<path d="M182.459627 15.900621h658.285715c12.720497 0 22.26087 10.335404 22.260869 22.26087v946.881987c0 12.720497-10.335404 22.26087-22.260869 22.26087H182.459627c-12.720497 0-22.26087-10.335404-22.260869-22.26087V38.161491C160.198758 26.236025 170.534161 15.900621 182.459627 15.900621z" fill="#acd2b3"/>
<path d="M841.540373 1024H182.459627c-21.465839 0-38.161491-17.490683-38.16149-38.161491V38.161491C144.298137 17.490683 161.78882 0 182.459627 0h658.285715c21.465839 0 38.161491 17.490683 38.16149 38.161491v946.881987c0.795031 21.465839-16.695652 38.956522-37.366459 38.956522zM182.459627 31.801242c-3.180124 0-6.360248 3.180124-6.360248 6.360249v946.881987c0 3.975155 3.180124 6.360248 6.360248 6.360249h658.285715c3.975155 0 6.360248-3.180124 6.360248-6.360249V38.161491c0-3.975155-3.180124-6.360248-6.360248-6.360249H182.459627z" fill=""/>
<path d="M254.012422 111.304348h512.795031v194.782609H254.012422z" fill="#ffff"/>
<path d="M782.708075 321.987578H238.111801V95.403727h544.596274v226.583851z m-512.795032-31.801243h480.993789V127.204969H269.913043v162.981366z" fill=""/>
<path d="M276.273292 401.490683h186.832298c12.720497 0 22.26087 10.335404 22.26087 22.26087v176.496894c0 12.720497-10.335404 22.26087-22.26087 22.26087H276.273292c-12.720497 0-22.26087-10.335404-22.26087-22.26087V423.751553c0-11.925466 9.540373-22.26087 22.26087-22.26087z" fill="#14872D"/>
<path d="M463.10559 638.409938H276.273292c-21.465839 0-38.161491-17.490683-38.161491-38.161491V423.751553c0-21.465839 17.490683-38.161491 38.161491-38.161491h186.832298c21.465839 0 38.161491 17.490683 38.161491 38.161491v176.496894c0 21.465839-16.695652 38.161491-38.161491 38.161491zM276.273292 417.391304c-3.975155 0-6.360248 3.180124-6.360249 6.360249v176.496894c0 3.975155 3.180124 6.360248 6.360249 6.360249h186.832298c3.975155 0 6.360248-3.180124 6.360249-6.360249V423.751553c0-3.975155-3.180124-6.360248-6.360249-6.360249H276.273292z" fill=""/>
<path d="M561.689441 401.490683H748.521739c12.720497 0 22.26087 10.335404 22.26087 22.26087v176.496894c0 12.720497-10.335404 22.26087-22.26087 22.26087H561.689441c-12.720497 0-22.26087-10.335404-22.26087-22.26087V423.751553c0-11.925466 9.540373-22.26087 22.26087-22.26087z" fill="#14872D"/>
<path d="M748.521739 638.409938H561.689441c-21.465839 0-38.161491-17.490683-38.161491-38.161491V423.751553c0-21.465839 17.490683-38.161491 38.161491-38.161491H748.521739c21.465839 0 38.161491 17.490683 38.161491 38.161491v176.496894c0 21.465839-16.695652 38.161491-38.161491 38.161491zM561.689441 417.391304c-3.975155 0-6.360248 3.180124-6.360248 6.360249v176.496894c0 3.975155 3.180124 6.360248 6.360248 6.360249H748.521739c3.975155 0 6.360248-3.180124 6.360249-6.360249V423.751553c0-3.975155-3.180124-6.360248-6.360249-6.360249H561.689441z" fill=""/>
<path d="M561.689441 686.111801H748.521739c12.720497 0 22.26087 10.335404 22.26087 22.26087v176.496894c0 12.720497-10.335404 22.26087-22.26087 22.26087H561.689441c-12.720497 0-22.26087-10.335404-22.26087-22.26087V708.372671c0-11.925466 9.540373-22.26087 22.26087-22.26087z" fill="#14872D"/>
<path d="M748.521739 923.031056H561.689441c-21.465839 0-38.161491-17.490683-38.161491-38.161491V708.372671c0-21.465839 17.490683-38.161491 38.161491-38.161491H748.521739c21.465839 0 38.161491 17.490683 38.161491 38.161491v176.496894c0 21.465839-16.695652 38.161491-38.161491 38.161491zM561.689441 702.012422c-3.975155 0-6.360248 3.180124-6.360248 6.360249v176.496894c0 3.975155 3.180124 6.360248 6.360248 6.360249H748.521739c3.975155 0 6.360248-3.180124 6.360249-6.360249V708.372671c0-3.975155-3.180124-6.360248-6.360249-6.360249H561.689441z" fill=""/>
<path d="M276.273292 686.111801h186.832298c12.720497 0 22.26087 10.335404 22.26087 22.26087v176.496894c0 12.720497-10.335404 22.26087-22.26087 22.26087H276.273292c-12.720497 0-22.26087-10.335404-22.26087-22.26087V708.372671c0-11.925466 9.540373-22.26087 22.26087-22.26087z" fill="#14872D"/>
<path d="M463.10559 923.031056H276.273292c-21.465839 0-38.161491-17.490683-38.161491-38.161491V708.372671c0-21.465839 17.490683-38.161491 38.161491-38.161491h186.832298c21.465839 0 38.161491 17.490683 38.161491 38.161491v176.496894c0 21.465839-16.695652 38.161491-38.161491 38.161491zM276.273292 702.012422c-3.975155 0-6.360248 3.180124-6.360249 6.360249v176.496894c0 3.975155 3.180124 6.360248 6.360249 6.360249h186.832298c3.975155 0 6.360248-3.180124 6.360249-6.360249V708.372671c0-3.975155-3.180124-6.360248-6.360249-6.360249H276.273292zM369.291925 578.782609c-8.745342 0-15.900621-7.15528-15.900621-15.900621V461.118012c0-8.745342 7.15528-15.900621 15.900621-15.900621s15.900621 7.15528 15.900622 15.900621v101.763976c0 8.745342-7.15528 15.900621-15.900622 15.900621z" fill=""/>
<path d="M418.583851 527.900621H321.590062c-8.745342 0-15.900621-7.15528-15.900621-15.900621s7.15528-15.900621 15.900621-15.900621h97.78882c8.745342 0 15.900621 7.15528 15.900621 15.900621s-7.950311 15.900621-16.695652 15.900621z" fill=""/>
<path d="M402.68323 847.503106c-3.975155 0-7.950311-1.590062-11.130435-4.770187l-69.167702-69.167702c-6.360248-6.360248-6.360248-15.900621 0-22.260869 6.360248-6.360248 15.900621-6.360248 22.26087 0l69.167702 69.167702c6.360248 6.360248 6.360248 15.900621 0 22.260869-2.385093 3.180124-7.15528 4.770186-11.130435 4.770187z" fill=""/>
<path d="M333.515528 847.503106c-3.975155 0-7.950311-1.590062-11.130435-4.770187-6.360248-6.360248-6.360248-15.900621 0-22.260869l69.167702-69.167702c6.360248-6.360248 15.900621-6.360248 22.26087 0 6.360248 6.360248 6.360248 15.900621 0 22.260869l-69.167702 69.167702c-3.180124 3.180124-7.15528 4.770186-11.130435 4.770187z" fill=""/>
<path d="M709.565217 527.900621H600.645963c-8.745342 0-15.900621-7.15528-15.900621-15.900621s7.15528-15.900621 15.900621-15.900621h109.714285c8.745342 0 15.900621 7.15528 15.900622 15.900621s-7.950311 15.900621-16.695653 15.900621z" fill=""/>
<path d="M709.565217 785.490683H600.645963c-8.745342 0-15.900621-7.15528-15.900621-15.900621s7.15528-15.900621 15.900621-15.900621h109.714285c8.745342 0 15.900621 7.15528 15.900622 15.900621s-7.950311 15.900621-16.695653 15.900621z" fill=""/>
<path d="M709.565217 847.503106H600.645963c-8.745342 0-15.900621-7.15528-15.900621-15.900622s7.15528-15.900621 15.900621-15.900621h109.714285c8.745342 0 15.900621 7.15528 15.900622 15.900621s-7.950311 15.900621-16.695653 15.900622z" fill=""/>
</g>
</svg>